Results
version=1
nRows=22
nColumns=24
inDegrees=yes
endheader
time	pelvis_tilt	pelvis_list	pelvis_rotation	pelvis_tx	pelvis_ty	pelvis_tz	hip_flexion_r	hip_adduction_r	hip_rotation_r	knee_angle_r	ankle_angle_r	subtalar_angle_r	mtp_angle_r	hip_flexion_l	hip_adduction_l	hip_rotation_l	knee_angle_l	ankle_angle_l	subtalar_angle_l	mtp_angle_l	lumbar_extension	lumbar_bending	lumbar_rotation
      0.58400000	     -5.80792151	      3.42593922	      6.37040985	     -0.83436216	      0.99745344	      0.26347438	     33.06562580	     -2.63972482	    -13.57961180	     -1.96109682	      5.61271932	      8.74503520	      9.74447505	    -11.54108472	      7.81201088	      4.07386701	     -4.37641517	     14.76815715	      1.64219987	     -1.61972873	      0.33672341	     -7.50872190	     -7.82437725
      0.58816667	     -5.72104951	      3.32982111	      6.37849603	     -0.82820267	      0.99684575	      0.26337669	     33.04554994	     -2.47482208	    -13.19539252	     -2.75569057	      5.69488346	      8.08281280	      9.74288439	    -11.85900752	      7.68268834	      4.15907642	     -4.65869701	     14.78460378	      1.49184035	     -1.63074625	      0.31816683	     -7.35426996	     -7.92936818
      0.59233333	     -5.63989233	      3.21732017	      6.38067096	     -0.82194520	      0.99625209	      0.26330118	     33.01382878	     -2.28397303	    -12.77639320	     -3.54862372	      5.71522506	      7.35072798	      9.73213935	    -12.16312080	      7.53589090	      4.18954067	     -4.96442985	     14.81599060	      1.42309357	     -1.63792125	      0.33393097	     -7.18031577	     -7.95180718
      0.59650000	     -5.55686649	      3.10205744	      6.38206006	     -0.81564173	      0.99568453	      0.26324863	     32.96319180	     -2.08105117	    -12.30958097	     -4.32712940	      5.66387989	      6.53530373	      9.71160786	    -12.46040732	      7.38566476	      4.20601522	     -5.28774378	     14.83506216	      1.37126969	     -1.64093124	      0.35533156	     -7.00929831	     -7.96960515
      0.60066667	     -5.47561590	      2.98295754	      6.37874894	     -0.80928488	      0.99514201	      0.26322667	     32.90093021	     -1.86378028	    -11.80513263	     -5.09043450	      5.54337998	      5.65961024	      9.68332258	    -12.75496641	      7.23130252	      4.21918501	     -5.61638508	     14.81935538	      1.30724662	     -1.63614157	      0.38518386	     -6.83245523	     -7.98686706
      0.60483333	     -5.39478396	      2.85370981	      6.36708432	     -0.80284631	      0.99462955	      0.26324571	     32.81891752	     -1.62173090	    -11.26486781	     -5.82117064	      5.37658402	      4.74468240	      9.65301948	    -13.04906421	      7.06543159	      4.22330014	     -5.94131530	     14.79478844	      1.27456758	     -1.62547345	      0.44443414	     -6.65511610	     -8.01378667
      0.60900000	     -5.31479742	      2.72735045	      6.36738258	     -0.79639659	      0.99416126	      0.26326361	     32.72302528	     -1.38222407	    -10.71749297	     -6.51754816	      5.08024943	      3.75075418	      9.61566196	    -13.31884564	      6.90080578	      4.21611274	     -6.31334701	     14.72834295	      1.21381576	     -1.60584955	      0.48134105	     -6.47258810	     -8.03109197
      0.61316667	     -5.25704761	      2.59194093	      6.37232145	     -0.78989118	      0.99370012	      0.26332742	     32.63568053	     -1.12864565	    -10.17028688	     -7.17689386	      4.71692073	      2.75073145	      9.57699220	    -13.55607819	      6.72357352	      4.20498744	     -6.70771570	     14.64923071	      1.16734151	     -1.57841979	      0.56830289	     -6.28947303	     -8.05725713
      0.61733333	     -5.19942513	      2.46926139	      6.38873334	     -0.78338954	      0.99329421	      0.26340377	     32.53381993	     -0.88685818	     -9.61305949	     -7.79243953	      4.23310192	      1.69710062	      9.53167268	    -13.77223596	      6.55594317	      4.19624416	     -7.13775316	     14.52694078	      1.12054801	     -1.52992981	      0.62537792	     -6.12850113	     -8.06947968
      0.62150000	     -5.14128462	      2.32236318	      6.38456013	     -0.77677718	      0.99291662	      0.26352676	     32.41966393	     -0.60734597	     -9.07517393	     -8.37416467	      3.70695904	      0.67358091	      9.49222865	    -13.99953366	      6.36434686	      4.18758205	     -7.54561806	     14.36880704	      1.06896258	     -1.47413865	      0.73264810	     -5.93907860	     -8.09530480
      0.62566667	     -5.09966791	      2.18855366	      6.40815099	     -0.77019111	      0.99257920	      0.26365669	     32.30863795	     -0.35008383	     -8.54295312	     -8.91159666	      3.08896362	     -0.38518700	      9.45296258	    -14.17606676	      6.17862927	      4.17572743	     -8.01575632	     14.19656870	      1.02408433	     -1.39074893	      0.82828803	     -5.77565205	     -8.11080975
      0.62983333	     -5.06776836	      2.03833310	      6.41592430	     -0.76350452	      0.99226939	      0.26381432	     32.20093646	     -0.07170447	     -8.05185856	     -9.42373317	      2.39925033	     -1.38976071	      9.42236827	    -14.34205081	      5.97852967	      4.16442097	     -8.48255262	     13.97197537	      0.98486869	     -1.30187914	      0.98292387	     -5.58919570	     -8.13963826
      0.63400000	     -5.04674647	      1.89769539	      6.45143172	     -0.75684863	      0.99200649	      0.26398482	     32.09111701	      0.18741563	     -7.56754539	     -9.89321208	      1.66133029	     -2.41744646	      9.39821892	    -14.46450494	      5.77880984	      4.16062562	     -9.01183508	     13.73630840	      0.93353077	     -1.17390368	      1.11394180	     -5.43406348	     -8.15866767
      0.63816667	     -5.03160604	      1.75089477	      6.47250375	     -0.75012005	      0.99178101	      0.26417758	     31.98667970	      0.45320310	     -7.12875264	    -10.35427743	      0.87025451	     -3.36329148	      9.38181691	    -14.57677644	      5.57504635	      4.15875357	     -9.53764733	     13.44765451	      0.90630339	     -1.04100239	      1.28289764	     -5.24955119	     -8.18620622
      0.64233333	     -5.01577168	      1.60382854	      6.50887557	     -0.74339277	      0.99161254	      0.26438379	     31.87033681	      0.71186901	     -6.71546955	    -10.78313823	      0.05714299	     -4.28219563	      9.37350195	    -14.66386314	      5.36244478	      4.15280378	    -10.11425423	     13.11965390	      0.86470734	     -0.88137250	      1.43843971	     -5.08448629	     -8.20599266
      0.64650000	     -5.01174715	      1.45914716	      6.55162288	     -0.73663609	      0.99149222	      0.26459945	     31.76334493	      0.95959673	     -6.34266756	    -11.20374573	     -0.77240163	     -5.14740484	      9.37266354	    -14.71361850	      5.14946912	      4.14942964	    -10.73018488	     12.75389903	      0.82584010	     -0.69390721	      1.61902572	     -4.93281755	     -8.23095388
      0.65066667	     -5.02249376	      1.31588822	      6.59685818	     -0.72986445	      0.99140280	      0.26481822	     31.67231568	      1.19722338	     -6.00260832	    -11.62389396	     -1.59189690	     -5.95504459	      9.37865051	    -14.72695315	      4.93605043	      4.14012817	    -11.38199669	     12.34731382	      0.79747140	     -0.47529561	      1.82066185	     -4.78314262	     -8.25602891
      0.65483333	     -5.01680925	      1.17484654	      6.64164308	     -0.72307762	      0.99138928	      0.26505539	     31.56535006	      1.42904130	     -5.70104832	    -12.05131652	     -2.38898718	     -6.71736648	      9.39047926	    -14.73828982	      4.71893732	      4.11557783	    -12.06147171	     11.91350000	      0.79078106	     -0.21567081	      2.00600361	     -4.63690971	     -8.27586359
      0.65900000	     -5.02030647	      1.04082425	      6.69102108	     -0.71628472	      0.99141962	      0.26528894	     31.47453271	      1.64195486	     -5.44892334	    -12.50022179	     -3.13994954	     -7.42523380	      9.40981945	    -14.71060705	      4.50564582	      4.07603210	    -12.78830686	     11.42322570	      0.79134614	      0.12577493	      2.19919968	     -4.51011759	     -8.29605374
      0.66316667	     -5.01656403	      0.90071340	      6.74343387	     -0.70948313	      0.99151292	      0.26553816	     31.36984158	      1.85778900	     -5.20284270	    -12.94235656	     -3.84623948	     -8.07463920	      9.43036945	    -14.66545822	      4.27894932	      4.02923959	    -13.55664915	     10.89608851	      0.81948787	      0.52888804	      2.38520990	     -4.36624537	     -8.30980569
      0.66733333	     -4.96094000	      0.73231330	      6.80109963	     -0.70263044	      0.99174716	      0.26579573	     31.20625677	      2.09590786	     -5.03456199	    -13.38839668	     -4.42135518	     -8.58964637	      9.78369145	    -14.64483755	      3.99969127	      3.89487494	    -14.35012523	     10.21988747	      0.98034055	      5.83890602	      2.52598722	     -4.17593460	     -8.25205288
      0.67150000	     -5.00061366	      0.62359784	      6.85890167	     -0.69586341	      0.99188680	      0.26603882	     31.16826378	      2.25571978	     -4.85360611	    -13.89946354	     -4.97089205	     -9.03151149	      9.76186473	    -14.50075111	      3.80715149	      3.86793393	    -15.19927157	      9.57803033	      0.92928320	      5.89832043	      2.76718748	     -4.08556591	     -8.32477886
